<svg xmlns="http://www.w3.org/2000/svg" viewBox="0 0 162 110"><defs><style>.a,.b{fill:none;stroke:#01223f;stroke-linecap:round;}.a{stroke-miterlimit:10;stroke-width:6px;}.b{stroke-linejoin:round;stroke-width:7px;}.c{fill:#01223f;}</style></defs><title>Artboard 1</title><path class="a" d="M64.56,58S50.62,83.42,15.92,82.72"/><polyline class="b" points="24.38 64.56 10.44 83.42 30.12 99"/><path class="c" d="M76.5,30a1.57,1.57,0,0,1,0,.46c0,.22,0,.48,0,.78s-.08.64-.14,1a10.29,10.29,0,0,1-.26,1.14,18,18,0,0,1-.63,1.84,8.57,8.57,0,0,1-.78,1.48,5,5,0,0,1-1,1.08,3.28,3.28,0,0,1-1.14.63,1.77,1.77,0,0,1-.84.06,1.46,1.46,0,0,1-.66-.32,2.15,2.15,0,0,1-.5-.61,4.46,4.46,0,0,1-.33-.77c0-.09-.06-.22-.1-.39s-.08-.35-.12-.56-.09-.43-.14-.66-.09-.45-.13-.66-.09-.4-.12-.57-.07-.3-.1-.39c-.27.17-.58.35-.91.52s-.67.35-1,.52-.7.32-1,.46l-1,.4c.08.28.17.62.28,1l.33,1.21c.2.78.39,1.54.57,2.29s.31,1.43.41,2.07a12.92,12.92,0,0,1,.16,1.74A3.56,3.56,0,0,1,67.19,45a1,1,0,0,1-.14.24,2.23,2.23,0,0,1-.22.21,1.24,1.24,0,0,1-.27.17,1.07,1.07,0,0,1-.27.12,1.48,1.48,0,0,1-1.14,0,1.19,1.19,0,0,1-.65-.78.6.6,0,0,1,0-.2.89.89,0,0,1,0-.22.72.72,0,0,1,.11-.19.56.56,0,0,1,.2-.12,1.22,1.22,0,0,1,.37-.05h.19c.1,0,.16-.12.19-.27a2.06,2.06,0,0,0,0-.51c0-.2,0-.39-.07-.59s-.06-.36-.09-.48c-.19-.94-.42-1.94-.71-3s-.6-2.12-.92-3.18l-.08,0,0,0-.09,0-.22.07a3.71,3.71,0,0,1-.45.11,1.8,1.8,0,0,1-.52.05,1.07,1.07,0,0,1-.47-.1.56.56,0,0,1-.28-.35,1.25,1.25,0,0,1-.07-.4.47.47,0,0,1,.14-.3A1,1,0,0,1,62.1,35a4.39,4.39,0,0,1,.67-.25l.29-.09.29-.11c-.06-.23-.12-.48-.19-.74s-.11-.52-.16-.8a7.55,7.55,0,0,1-.13-.83,7.74,7.74,0,0,1-.07-.83,5.71,5.71,0,0,1,.12-1.59,4.49,4.49,0,0,1,.44-1.22,3.21,3.21,0,0,1,.68-.84,2.32,2.32,0,0,1,.82-.46,2,2,0,0,1,1.37,0,1.73,1.73,0,0,1,.83,1.16c0,.08,0,.2.08.36a2.86,2.86,0,0,1,0,.51,1.11,1.11,0,0,1-.09.46.52.52,0,0,1-.25.18.4.4,0,0,1-.31-.05,1.28,1.28,0,0,1-.35-.35L66,29.26,65.77,29a1,1,0,0,0-.21-.17.24.24,0,0,0-.2,0,.89.89,0,0,0-.56.53,2.66,2.66,0,0,0-.19,1.07,7.43,7.43,0,0,0,.15,1.53,17.73,17.73,0,0,0,.47,1.92c.34-.12.7-.26,1.09-.43s.75-.33,1.08-.5.88-.5,1.26-.75a11.82,11.82,0,0,0,1.08-.82,2.31,2.31,0,0,1,.19-.16.57.57,0,0,1,.25-.13.68.68,0,0,1,.58.09,1.22,1.22,0,0,1,.45.7,3.42,3.42,0,0,1,.1.41c0,.21.11.45.17.73s.12.56.19.87.13.6.18.87.12.51.17.72a3.64,3.64,0,0,0,.1.4,1.45,1.45,0,0,0,.21.48c.07.12.15.15.25.12a1.27,1.27,0,0,0,.48-.3,3.71,3.71,0,0,0,.46-.55,7.85,7.85,0,0,0,.43-.71c.13-.26.25-.51.37-.77s.21-.49.29-.73.16-.43.21-.6a13,13,0,0,0,.36-1.38q.13-.61.21-1.05a3.7,3.7,0,0,1,.15-.68.5.5,0,0,1,.3-.32.37.37,0,0,1,.39.11A1,1,0,0,1,76.5,30ZM71,26.26a.57.57,0,0,1,0,.18.94.94,0,0,1,0,.23,1.87,1.87,0,0,1-.07.34c0,.14-.08.31-.14.53l-.17.18a2.09,2.09,0,0,1-.22.2l-.23.18a.85.85,0,0,1-.21.11.94.94,0,0,1-.55,0,.48.48,0,0,1-.35-.35,1,1,0,0,1,0-.36,2.76,2.76,0,0,1,.06-.4,2.38,2.38,0,0,1,.11-.38c0-.13.1-.24.14-.33a1,1,0,0,1,.57-.55.91.91,0,0,1,.33,0,1.14,1.14,0,0,1,.33.06.92.92,0,0,1,.27.16A.44.44,0,0,1,71,26.26Z"/><path class="c" d="M84,29.43a1.44,1.44,0,0,1,0,.48,8.25,8.25,0,0,1-.23.87c-.1.34-.23.72-.39,1.13s-.34.84-.54,1.26-.43.85-.68,1.27a9.07,9.07,0,0,1-.77,1.14,6.1,6.1,0,0,1-.86.89,2.58,2.58,0,0,1-.91.53,2.4,2.4,0,0,1-1.19.1,1.84,1.84,0,0,1-.89-.42,2.61,2.61,0,0,1-.61-.8,6.89,6.89,0,0,1-.41-1c-.06-.21-.14-.51-.23-.91s-.18-.87-.26-1.4-.18-1.09-.26-1.69-.14-1.21-.18-1.83-.07-1.2-.07-1.78a10.5,10.5,0,0,1,.11-1.56,4.37,4.37,0,0,1,.34-1.15,1.06,1.06,0,0,1,.61-.59A.53.53,0,0,1,77,24a1.36,1.36,0,0,1,.37.65c0,.32,0,.59,0,.83v1.56c0,.25,0,.47,0,.65v.34c0,.55,0,1.09.08,1.63s.1,1.07.17,1.59.15,1,.26,1.49.21.92.34,1.34a2.3,2.3,0,0,0,.24.52,1.15,1.15,0,0,0,.29.32.7.7,0,0,0,.32.14.62.62,0,0,0,.33,0,1.54,1.54,0,0,0,.58-.34,4.27,4.27,0,0,0,.61-.65,8.46,8.46,0,0,0,.61-.85c.2-.31.39-.64.58-1s.36-.69.52-1.05.31-.68.45-1a2.7,2.7,0,0,1,.15-.29,1.61,1.61,0,0,1,.21-.3,1.7,1.7,0,0,1,.22-.24.83.83,0,0,1,.23-.14.45.45,0,0,1,.23,0A.29.29,0,0,1,84,29.43Z"/><path class="c" d="M90.31,30a.85.85,0,0,1,0,.33,4.2,4.2,0,0,1-.08.47c0,.17-.08.34-.13.5s-.1.31-.14.42a7.57,7.57,0,0,1-.51,1,6.38,6.38,0,0,1-.67.94,4.64,4.64,0,0,1-.79.75,3,3,0,0,1-.9.47,2.93,2.93,0,0,1-1.35.12,2.33,2.33,0,0,1-1.12-.53,4,4,0,0,1-.92-1.15A9.91,9.91,0,0,1,83,31.61c-.12-.4-.23-.84-.34-1.32s-.2-1-.29-1.52-.17-1.06-.23-1.6S82,26.11,82,25.6s0-1,0-1.44A8.71,8.71,0,0,1,82,23a3.84,3.84,0,0,1,.17-.85.57.57,0,0,1,.32-.38.6.6,0,0,1,.32,0,1.17,1.17,0,0,1,.57.26,2.23,2.23,0,0,1,.22.21c0,.26.11.58.15,1s.1.82.14,1.27.07.91.11,1.37.07.89.1,1.29.06.6.11.91.1.63.16,1,.13.61.21.91.16.58.24.84a5.53,5.53,0,0,0,.91,1.89,1,1,0,0,0,1.19.39,2.24,2.24,0,0,0,.78-.41,4.16,4.16,0,0,0,.65-.61,5,5,0,0,0,.53-.74,8,8,0,0,0,.4-.76c.09-.18.18-.35.28-.51a.66.66,0,0,1,.29-.29c.16,0,.26,0,.32,0A1,1,0,0,1,90.31,30Z"/><path class="c" d="M103.26,19a.36.36,0,0,1,.34,0,.51.51,0,0,1,.17.25.86.86,0,0,1,0,.45,2.7,2.7,0,0,1-.21.6,3.53,3.53,0,0,1-.39.62,4.28,4.28,0,0,1-.53.59q-.39.34-.81.66a10.63,10.63,0,0,1-.89.61c-.32.2-.67.39-1,.59s-.8.38-1.26.57a.32.32,0,0,0-.18.16.54.54,0,0,0,0,.29q0,.21.09.51l.09.59c0,.19.06.37.09.53s.05.27.06.35l.14.85c0,.25.07.48.1.69s.07.42.11.62.1.4.17.61.1.34.14.46.07.23.09.31l0,.21a.44.44,0,0,1,0,.14.31.31,0,0,1-.09.21,2.1,2.1,0,0,1-.24.3A1.9,1.9,0,0,1,99,31a.85.85,0,0,1-.22.15.83.83,0,0,1-.54,0,1.36,1.36,0,0,1-.4-.25,1.5,1.5,0,0,1-.26-.33,2.58,2.58,0,0,1-.12-.24,11.54,11.54,0,0,1-.35-1.57c-.08-.53-.15-1.07-.2-1.6,0-.18,0-.36,0-.53l-.06-.53c0-.18,0-.37-.08-.56s-.06-.41-.1-.63v0a.12.12,0,0,0-.12-.08l-.18,0-.21.08-.38.15-.47.18-.46.18-.38.14a1.18,1.18,0,0,1-.21.07.81.81,0,0,1-.41,0,2,2,0,0,1-.4-.16,1.14,1.14,0,0,1-.33-.23.63.63,0,0,1-.17-.24.88.88,0,0,1,0-.42,1,1,0,0,1,.15-.33.89.89,0,0,1,.26-.25,1.25,1.25,0,0,1,.33-.16l.34-.11.5-.18c.19-.06.37-.13.57-.21l.55-.21A4,4,0,0,0,96,23l.26-.13a.53.53,0,0,0,.06-.35c0-.19,0-.47,0-.84,0-.11,0-.26-.05-.45s0-.39-.07-.61,0-.45-.09-.68-.06-.46-.09-.67-.06-.4-.08-.56-.06-.28-.07-.35a.47.47,0,0,1,0-.34,1.44,1.44,0,0,1,.19-.37,2.81,2.81,0,0,1,.25-.31.72.72,0,0,1,.22-.16.9.9,0,0,1,.4,0,1.57,1.57,0,0,1,.38.14,1.27,1.27,0,0,1,.29.21.55.55,0,0,1,.15.19.91.91,0,0,1,0,.2q0,.16.06.39c0,.16,0,.32.06.5s.05.35.07.51,0,.32,0,.44S98,20,98,20c0,.4.06.71.08.95s0,.42.06.55,0,.23,0,.28a1.3,1.3,0,0,0,0,.13.16.16,0,0,0,0,.07l0,0,0,0,.41-.19.57-.26.66-.33c.23-.12.46-.24.68-.37s.44-.25.64-.39a6.44,6.44,0,0,0,.52-.38l.46-.43c.13-.13.25-.25.37-.35a2.83,2.83,0,0,1,.31-.25A1,1,0,0,1,103.26,19Z"/><path class="c" d="M117.71,18a1,1,0,0,1,0,.4,4.75,4.75,0,0,1-.16.62c-.08.22-.17.46-.28.71s-.21.49-.33.71c-.21.41-.43.84-.68,1.29a10.74,10.74,0,0,1-.81,1.29,6.91,6.91,0,0,1-1,1.08,3.53,3.53,0,0,1-1.24.69,2.06,2.06,0,0,1-1,.08,1.8,1.8,0,0,1-.86-.41,3.7,3.7,0,0,1-.74-.88,10.26,10.26,0,0,1-.67-1.33c-.08-.2-.15-.39-.23-.55a4.27,4.27,0,0,0-.2-.42.83.83,0,0,0-.17-.26c0-.06-.09-.08-.14-.07s-.33.23-.52.56a9.09,9.09,0,0,0-.6,1.27c-.22.52-.44,1.14-.67,1.84s-.45,1.45-.69,2.26a2.79,2.79,0,0,1-.14.33c-.07.16-.16.31-.25.48a2.74,2.74,0,0,1-.3.43.73.73,0,0,1-.29.24,3.12,3.12,0,0,1-.44.09,1.17,1.17,0,0,1-.42,0,.81.81,0,0,1-.34-.15.62.62,0,0,1-.21-.34,1.51,1.51,0,0,1-.07-.34c0-.16,0-.32-.07-.5l-.06-.51c0-.16,0-.29,0-.38s0-.17,0-.34,0-.38-.08-.63-.07-.53-.11-.84-.08-.61-.13-.93-.08-.64-.13-.95-.08-.61-.11-.87-.07-.5-.1-.69-.05-.34-.06-.43,0-.18-.06-.38-.07-.42-.12-.69-.09-.55-.14-.86-.09-.59-.14-.85-.08-.5-.12-.7,0-.32-.06-.37a2.93,2.93,0,0,1,0-.53,3.68,3.68,0,0,1,.08-.58,2,2,0,0,1,.21-.49.58.58,0,0,1,.33-.27,1,1,0,0,1,.4,0,1.22,1.22,0,0,1,.45.1,1.44,1.44,0,0,1,.41.3,1.28,1.28,0,0,1,.29.53c0,.15.09.35.14.58s.08.48.11.75.07.53.1.81,0,.55.07.8,0,.49.06.7,0,.39,0,.51,0,.42,0,.63,0,.41,0,.58a4.19,4.19,0,0,1,0,.42q0,.27,0,.63c0,.23,0,.49,0,.76s0,.54,0,.82,0,.54,0,.8,0,.49,0,.7c.11-.38.22-.78.35-1.2s.27-.84.4-1.25.28-.79.42-1.15a8.43,8.43,0,0,1,.38-.9,5.12,5.12,0,0,1,.44-.72,4.19,4.19,0,0,1,.5-.6,3.16,3.16,0,0,1,.54-.44,2.33,2.33,0,0,1,.55-.27.81.81,0,0,1,.32,0,1.43,1.43,0,0,1,.35.06,1.58,1.58,0,0,1,.35.16,1,1,0,0,1,.28.27,5.65,5.65,0,0,1,.53.84c.15.3.29.6.42.89s.24.54.37.81.26.49.38.69a3.81,3.81,0,0,0,.35.47c.11.12.21.16.29.14a2.54,2.54,0,0,0,.75-.41,5.45,5.45,0,0,0,.71-.66c.22-.24.43-.5.63-.76s.36-.51.5-.74l1.16-1.91c.3-.48.52-.74.67-.79a.28.28,0,0,1,.28,0A.57.57,0,0,1,117.71,18Z"/><path class="c" d="M118.5,11.37a1.53,1.53,0,0,1,.08.55,1.66,1.66,0,0,1-.1.54,1.17,1.17,0,0,1-.84.75,2.61,2.61,0,0,1-.5.11,2.54,2.54,0,0,1-.47,0,1.41,1.41,0,0,1-.38-.1.43.43,0,0,1-.21-.23,1.42,1.42,0,0,1,0-.59,2.34,2.34,0,0,1,.52-1.2,1.05,1.05,0,0,1,.44-.32,3.5,3.5,0,0,1,.53-.12,1.21,1.21,0,0,1,.43,0,.63.63,0,0,1,.32.19A.9.9,0,0,1,118.5,11.37Zm7.36,5.3a1.28,1.28,0,0,1,0,.53,7,7,0,0,1-.2.79c-.1.3-.22.62-.37,1s-.31.71-.5,1.09-.42.82-.67,1.24-.53.82-.84,1.23a5.33,5.33,0,0,1-.94,1,2.76,2.76,0,0,1-1,.56,2.31,2.31,0,0,1-1.08.12,2.24,2.24,0,0,1-.91-.31,3.09,3.09,0,0,1-.74-.62,5.51,5.51,0,0,1-.59-.84,7.63,7.63,0,0,1-.47-.95c-.13-.32-.24-.64-.33-.94a5,5,0,0,1-.14-.54c-.06-.24-.11-.49-.16-.76s-.1-.53-.13-.79a4.37,4.37,0,0,1-.07-.61,1.73,1.73,0,0,1,.34-1,1.62,1.62,0,0,1,.86-.65c.37-.12.62.05.75.48a4.52,4.52,0,0,1,.15.68q.06.36.09.72c0,.43.12.81.19,1.15s.15.63.23.88a6.63,6.63,0,0,0,.31.82,3.25,3.25,0,0,0,.37.67,1.4,1.4,0,0,0,.4.43.43.43,0,0,0,.4.09,2.75,2.75,0,0,0,.51-.21,2.05,2.05,0,0,0,.57-.45A10.47,10.47,0,0,0,123.12,20c.14-.21.3-.47.47-.76s.36-.58.53-.88l.47-.88q.21-.43.33-.72a.93.93,0,0,1,0-.13,1.66,1.66,0,0,1,.06-.16.56.56,0,0,1,.1-.15.24.24,0,0,1,.12-.09.44.44,0,0,1,.21,0,.64.64,0,0,1,.21.19A.86.86,0,0,1,125.86,16.67Z"/><path class="c" d="M130.8,18.87a2.53,2.53,0,0,1,.11.91,4.36,4.36,0,0,1-.19.94,4.42,4.42,0,0,1-.4.89,5.64,5.64,0,0,1-.56.77,4.45,4.45,0,0,1-.65.59,2.66,2.66,0,0,1-.66.35,1.06,1.06,0,0,1-.83,0,1,1,0,0,1-.44-.59,1.15,1.15,0,0,1-.05-.41,1,1,0,0,1,.08-.37.84.84,0,0,1,.22-.31,1,1,0,0,1,.36-.2l.16,0a1.91,1.91,0,0,0,.36-.17,1.41,1.41,0,0,0,.4-.43,1.31,1.31,0,0,0,.21-.59,1.7,1.7,0,0,0,0-.53.83.83,0,0,0-.2-.32,2,2,0,0,0-.35-.25,3.62,3.62,0,0,0-.44-.2l-.51-.19-.72-.28a5.58,5.58,0,0,1-.69-.35,2.74,2.74,0,0,1-.55-.46,1.59,1.59,0,0,1-.35-.62,2.38,2.38,0,0,1-.1-.78,4.29,4.29,0,0,1,.1-.86,6.28,6.28,0,0,1,.27-.87,6.14,6.14,0,0,1,.39-.77,3,3,0,0,1,.48-.6,1.47,1.47,0,0,1,.51-.33.81.81,0,0,1,1.15.61,1.14,1.14,0,0,1,0,.49,2.15,2.15,0,0,1-.14.54,3.87,3.87,0,0,1-.25.55c-.1.19-.2.36-.3.52a2.8,2.8,0,0,1-.25.36,2.18,2.18,0,0,0-.22.31,2.09,2.09,0,0,0,.31.24l.39.21.41.18.38.16.8.33a6.07,6.07,0,0,1,.76.4,2.91,2.91,0,0,1,.63.52A1.67,1.67,0,0,1,130.8,18.87Z"/><path class="c" d="M89.14,49.64a.84.84,0,0,1,0,.19,1.57,1.57,0,0,1,0,.32,2.48,2.48,0,0,1-.16.45,5,5,0,0,1-.34.6,6.27,6.27,0,0,1-.56.72c-.24.28-.5.57-.8.88l-1,1-1,1-1,.92-.86.79a4.78,4.78,0,0,0-.49.51l-.45.53a3.88,3.88,0,0,1-.44.46,1.22,1.22,0,0,1-.44.27,2.13,2.13,0,0,1-.48.09,1.65,1.65,0,0,1-.46-.06.92.92,0,0,1-.61-.67.52.52,0,0,1,0-.44,1.59,1.59,0,0,1,.3-.41,3.62,3.62,0,0,1,.42-.36l.39-.29.43-.3a2.39,2.39,0,0,0,.32-.25,1.92,1.92,0,0,0,.33-.46,4.11,4.11,0,0,0,.25-.56,5.26,5.26,0,0,0,.18-.6q.07-.31.15-.6a2.57,2.57,0,0,0,0-.4V52.5c0-.14,0-.27,0-.39a2.05,2.05,0,0,0-.07-.31,1.49,1.49,0,0,0-.37-.66A.49.49,0,0,0,82,51a1,1,0,0,0-.39.28,4.08,4.08,0,0,0-.41.49c-.13.19-.25.38-.37.57s-.2.36-.26.49c-.15.31-.3.65-.46,1s-.3.76-.42,1.15a10.18,10.18,0,0,0-.32,1.17,5.81,5.81,0,0,0-.14,1.12,3.54,3.54,0,0,0,.05.7c0,.26.1.52.16.8s.13.55.21.83.14.55.2.81c.11.43.22.86.35,1.28a7,7,0,0,1,.25,1.17,1.45,1.45,0,0,1,0,.36,1.2,1.2,0,0,1-.13.33,1.37,1.37,0,0,1-.25.29,1.08,1.08,0,0,1-.37.19.84.84,0,0,1-.33,0A1.27,1.27,0,0,1,79,64a1.74,1.74,0,0,1-.33-.18.66.66,0,0,1-.21-.29c0-.12-.07-.26-.11-.43s-.08-.35-.12-.54-.07-.39-.11-.59-.07-.39-.1-.57-.06-.33-.09-.47,0-.25,0-.32c-.09-.55-.21-1.17-.35-1.86s-.31-1.39-.5-2.11c0-.18-.1-.41-.18-.68s-.15-.54-.22-.82-.15-.52-.21-.75-.1-.4-.13-.5a3.2,3.2,0,0,1-.06-1.42.9.9,0,0,1,.64-.68,1,1,0,0,1,.42,0,1.06,1.06,0,0,1,.39.13,1.35,1.35,0,0,1,.32.26.85.85,0,0,1,.2.32c0,.11.06.25.09.43s.06.35.08.55.05.39.07.58,0,.35,0,.48c0-.23.12-.48.19-.74l.21-.77c.08-.26.16-.49.24-.72a5.47,5.47,0,0,1,.26-.58c.17-.3.34-.59.52-.86a5,5,0,0,1,.58-.75,3.84,3.84,0,0,1,.68-.59,2.88,2.88,0,0,1,.83-.39,1.69,1.69,0,0,1,.75,0,2.16,2.16,0,0,1,.78.31,2.75,2.75,0,0,1,.69.64,2.83,2.83,0,0,1,.5,1,2.45,2.45,0,0,1,.1.64,4.63,4.63,0,0,1,0,.74,4,4,0,0,1-.17.74,3.76,3.76,0,0,1-.29.68l.93-.94c.33-.33.65-.67,1-1l1-1.06c.31-.35.6-.68.86-1l.34-.39a.74.74,0,0,1,.34-.22.3.3,0,0,1,.25,0,.32.32,0,0,1,.15.2l0,.13A1,1,0,0,0,89.14,49.64Z"/><path class="c" d="M98.08,50.76a1.84,1.84,0,0,1,0,.37,1.59,1.59,0,0,1-.08.46,3.81,3.81,0,0,1-.25.68,4.71,4.71,0,0,1-.43.7,3.46,3.46,0,0,1-.61.6A2.27,2.27,0,0,1,96,54a1.88,1.88,0,0,1-.93.07,2.13,2.13,0,0,1-.82-.35,2.9,2.9,0,0,1-.7-.66,4.22,4.22,0,0,1-.52-.9,8.81,8.81,0,0,1-.5,1.25,7.06,7.06,0,0,1-.68,1.13,4.92,4.92,0,0,1-.81.88,2.5,2.5,0,0,1-.9.51,1.33,1.33,0,0,1-.66.05,1.84,1.84,0,0,1-.64-.24,2.17,2.17,0,0,1-.54-.47,1.92,1.92,0,0,1-.34-.65,4.37,4.37,0,0,1-.16-.69,5.17,5.17,0,0,1-.06-.82,9.34,9.34,0,0,1,.06-1c0-.37.09-.78.17-1.23a8.07,8.07,0,0,1,.44-1.48,9,9,0,0,1,.66-1.32,5.09,5.09,0,0,1,.74-1,1.85,1.85,0,0,1,.67-.5l.22,0h.23l.2,0h.11l0,0,.1-.11.15-.12a.56.56,0,0,1,.17-.09.88.88,0,0,1,.33,0,2,2,0,0,1,.38.11,2.12,2.12,0,0,1,.36.21.91.91,0,0,1,.25.27.6.6,0,0,0,.08.13l.05,0a.74.74,0,0,1,.25.17.69.69,0,0,1,.17.32,2.29,2.29,0,0,1,.06.38c0,.19,0,.4.06.64s0,.48.09.74a5.33,5.33,0,0,0,.15.68,7.53,7.53,0,0,0,.51,1.29,3.76,3.76,0,0,0,.51.78,1.16,1.16,0,0,0,.49.36.71.71,0,0,0,.43,0,1.9,1.9,0,0,0,.81-.48,2.31,2.31,0,0,0,.47-.77l.07-.2a1.19,1.19,0,0,1,.08-.16.38.38,0,0,1,.1-.12.59.59,0,0,1,.16-.07.45.45,0,0,1,.3,0A.36.36,0,0,1,98.08,50.76Zm-6.16-2a2.23,2.23,0,0,0-.31-.7c-.1-.13-.2-.18-.27-.16A.86.86,0,0,0,91,48a1.86,1.86,0,0,0-.27.29,2.46,2.46,0,0,0-.22.34,1.55,1.55,0,0,0-.15.33l-.21.67c-.07.25-.15.52-.22.8s-.14.56-.2.85-.11.57-.14.84a7.43,7.43,0,0,0-.05.78,2.81,2.81,0,0,0,.09.64,1,1,0,0,0,.23.43.32.32,0,0,0,.35.08.89.89,0,0,0,.31-.28c.12-.16.25-.36.39-.59s.26-.47.38-.73a4.79,4.79,0,0,0,.28-.72c.08-.24.14-.5.21-.77s.11-.54.15-.81A5.32,5.32,0,0,0,92,49.4,2.37,2.37,0,0,0,91.92,48.72Z"/><path class="c" d="M105.82,43.63a.8.8,0,0,1,0,.63.79.79,0,0,1-.48.39,1,1,0,0,1-.41.06,1.7,1.7,0,0,1-.35-.06l-.3-.07a.5.5,0,0,0-.27,0,.75.75,0,0,0-.3.2,2.19,2.19,0,0,0-.29.39,5,5,0,0,0-.27.52c-.09.19-.18.39-.26.6s-.12.32-.19.53-.13.41-.19.62-.12.43-.17.65a5.55,5.55,0,0,0-.11.6c0,.16,0,.35-.08.55s0,.43,0,.64,0,.41,0,.6a3,3,0,0,0,0,.47c0,.23.06.44.08.64a1.77,1.77,0,0,1,0,.51.67.67,0,0,1-.51.62,1,1,0,0,1-1.21-.38,2.66,2.66,0,0,1-.32-.63,6.87,6.87,0,0,0-.27-.68c-.06-.14-.12-.28-.17-.42s-.12-.3-.17-.45-.12-.33-.18-.51l-.2-.6c-.09-.28-.17-.6-.26-1s-.16-.71-.24-1-.12-.64-.16-.9a4.33,4.33,0,0,1-.06-.53,2.28,2.28,0,0,1,.09-.51,1.92,1.92,0,0,1,.21-.46A1.93,1.93,0,0,1,99,44.3a1.08,1.08,0,0,1,.34-.2,1.61,1.61,0,0,1,.33-.06,1,1,0,0,1,.34.05.83.83,0,0,1,.3.2.92.92,0,0,1,.21.38,1.1,1.1,0,0,1,0,.21c0,.09,0,.23,0,.4s0,.41,0,.66,0,.5,0,.76,0,.51.08.75a4.48,4.48,0,0,0,.12.65l.06-.35c0-.16.06-.34.09-.52s.07-.37.1-.54.06-.3.08-.38c.07-.32.17-.67.29-1.05a6,6,0,0,1,.46-1.07,3.63,3.63,0,0,1,.72-.93,2.65,2.65,0,0,1,1-.61,2.74,2.74,0,0,1,.84-.12,1.54,1.54,0,0,1,.63.16,1.38,1.38,0,0,1,.44.39A1.66,1.66,0,0,1,105.82,43.63Zm8.07-3.21a.6.6,0,0,1,0,.51,1.33,1.33,0,0,1-.34.37,2.53,2.53,0,0,1-.45.25l-.36.15-1,.39-.88.4-.76.36-.62.28c0,.17,0,.37,0,.62s0,.51,0,.79,0,.58.07.88,0,.58.07.84a6.93,6.93,0,0,0,.09.73,2.75,2.75,0,0,0,.1.49,1.81,1.81,0,0,0,.14.35,1.6,1.6,0,0,0,.23.38,1,1,0,0,0,.3.28.41.41,0,0,0,.36,0,1.8,1.8,0,0,0,.8-.59,6,6,0,0,0,.81-1.24,2,2,0,0,1,.25-.35.93.93,0,0,1,.44-.28.73.73,0,0,1,.35,0c.11,0,.18.11.23.27a1.18,1.18,0,0,1,.06.28,1.1,1.1,0,0,1,0,.26,1.74,1.74,0,0,1-.07.29c0,.1-.08.23-.13.37l-.17.37c-.08.15-.18.32-.3.5a6.84,6.84,0,0,1-.4.58,5.27,5.27,0,0,1-.5.56,4.51,4.51,0,0,1-.6.48,2.73,2.73,0,0,1-.69.33,2.61,2.61,0,0,1-1,.13,1.83,1.83,0,0,1-.73-.21,1.94,1.94,0,0,1-.55-.44,3.53,3.53,0,0,1-.38-.57,5.18,5.18,0,0,1-.26-.6l-.18-.51a4.85,4.85,0,0,1-.12-.58c0-.23-.07-.47-.1-.73s-.05-.53-.08-.8,0-.54-.07-.8,0-.49-.08-.7a4.55,4.55,0,0,0-.08-.54,1,1,0,0,1-.4,0,.66.66,0,0,1-.29-.09.55.55,0,0,1-.22-.18.71.71,0,0,1-.11-.21.87.87,0,0,1,0-.55.84.84,0,0,1,.26-.38,1.8,1.8,0,0,1,.4-.25l.41-.16a2.48,2.48,0,0,1,0-.36c0-.21,0-.46,0-.74s0-.58,0-.89,0-.57-.06-.79a1.3,1.3,0,0,1,.17-.9,1.21,1.21,0,0,1,.63-.44,1,1,0,0,1,.47,0,.75.75,0,0,1,.31.15.86.86,0,0,1,.2.27,2.66,2.66,0,0,1,.11.28s0,.14,0,.31v.63c0,.26,0,.54,0,.86s0,.63.08,1l.34-.14.53-.22.61-.26c.22-.1.42-.19.61-.26l.49-.21.26-.1.76-.21a1.7,1.7,0,0,1,.51-.06.61.61,0,0,1,.32.1A.68.68,0,0,1,113.89,40.42Z"/><path class="c" d="M123.66,32.34a1.5,1.5,0,0,1,.08.55,1.47,1.47,0,0,1-.1.54,1.19,1.19,0,0,1-.84.75l-.48.11a2,2,0,0,1-.48,0,1,1,0,0,1-.38-.09.37.37,0,0,1-.21-.23,1.28,1.28,0,0,1,0-.59,2.86,2.86,0,0,1,.19-.65,2.26,2.26,0,0,1,.34-.56.92.92,0,0,1,.44-.31,3,3,0,0,1,.53-.12,1,1,0,0,1,.42,0,.6.6,0,0,1,.33.18A1.15,1.15,0,0,1,123.66,32.34Zm6.28,8.73c-.12.24-.24.47-.36.68s-.23.42-.36.62l-.37.58-.41.59a6.07,6.07,0,0,1-.94,1,2.88,2.88,0,0,1-1,.56,2.6,2.6,0,0,1-1.08.12,2.15,2.15,0,0,1-.9-.31,3,3,0,0,1-.75-.62,6.31,6.31,0,0,1-.59-.84,8.38,8.38,0,0,1-.47-1c-.13-.33-.24-.64-.33-.94,0-.12-.08-.29-.13-.52a6.5,6.5,0,0,1-.15-.72l-.12-.74c0-.24,0-.43-.06-.59a1.36,1.36,0,0,1,.09-.48,2.21,2.21,0,0,1,.25-.48,1.61,1.61,0,0,1,.87-.65c.36-.11.61,0,.75.49a4.43,4.43,0,0,1,.11.55c0,.22.07.44.1.66s.09.49.12.7.07.39.09.56.07.32.09.45.07.25.1.37a5.23,5.23,0,0,0,.27.7,4.94,4.94,0,0,0,.36.69,2.44,2.44,0,0,0,.41.5.37.37,0,0,0,.38.14,3.31,3.31,0,0,0,.57-.25,2.56,2.56,0,0,0,.61-.48c.19-.21.39-.44.59-.7a8.78,8.78,0,0,0,.59-.87c.19-.29.36-.59.54-.88s.35-.61.52-.94l.21-.42c.06-.12.11-.24.17-.35l.15-.32c0-.1.1-.22.16-.33a.61.61,0,0,1,0-.12l.08-.15a.64.64,0,0,1,.1-.13.25.25,0,0,1,.12-.08.68.68,0,0,1,.21,0,.33.33,0,0,1,.21.12.64.64,0,0,1,.14.21c0,.07,0,.14.07.19a.77.77,0,0,1,0,.3,4.8,4.8,0,0,1-.11.51c0,.2-.11.42-.18.65l-.24.7c-.08.23-.16.46-.25.67A5.15,5.15,0,0,1,129.94,41.07Z"/><path class="c" d="M142,36.84a.17.17,0,0,1,.15.06.59.59,0,0,1,.14.28,1.47,1.47,0,0,1,0,.78,2.76,2.76,0,0,1-.4.91,4,4,0,0,1-.86.88,4.29,4.29,0,0,1-1.34.65,3.59,3.59,0,0,1-1.42.18,2.71,2.71,0,0,1-1.25-.43,3.64,3.64,0,0,1-1-1.09,6.8,6.8,0,0,1-.83-1.81,7.9,7.9,0,0,0-.54,1c-.17.38-.33.76-.47,1.15s-.26.73-.36,1.06-.19.57-.24.75-.14.48-.19.66a2,2,0,0,1-.16.45.8.8,0,0,1-.22.29,1.31,1.31,0,0,1-.41.19,1.29,1.29,0,0,1-.47.06,1.07,1.07,0,0,1-.41-.08.92.92,0,0,1-.31-.2.65.65,0,0,1-.17-.27c0-.09-.06-.21-.09-.34s-.05-.27-.07-.41,0-.28-.07-.42,0-.26,0-.37-.05-.3-.07-.47-.05-.34-.08-.54-.06-.42-.1-.66-.09-.52-.15-.81-.14-.68-.21-1-.13-.66-.19-1a4.13,4.13,0,0,1,0-.57,1.27,1.27,0,0,1,.06-.49.91.91,0,0,1,.24-.38,1.18,1.18,0,0,1,.49-.26,1.27,1.27,0,0,1,.47-.07.57.57,0,0,1,.31.1.62.62,0,0,1,.19.23,2.49,2.49,0,0,1,.11.29,1.13,1.13,0,0,1,0,.15l0,.13c0,.09,0,.21.06.34s0,.33.06.58,0,.57.09,1c0,.24,0,.49.05.74s0,.49.06.72,0,.43.05.61a4.12,4.12,0,0,0,.06.42l.29-.72c.11-.29.21-.58.31-.88l.31-.85q.15-.41.27-.66c.12-.27.24-.53.37-.78a4.43,4.43,0,0,1,.41-.67,2.38,2.38,0,0,1,.52-.53,2.08,2.08,0,0,1,.68-.35,1.54,1.54,0,0,1,.38-.06.46.46,0,0,1,.4.25,1.6,1.6,0,0,1,.1.23l0,.14a1.71,1.71,0,0,1,.05.24c0,.13,0,.27.08.43s.05.29.07.42l.06.26a7.45,7.45,0,0,0,.48,1.18,3.5,3.5,0,0,0,.61.88,1.88,1.88,0,0,0,.76.48,1.4,1.4,0,0,0,.88,0,4.42,4.42,0,0,0,.56-.21,3.87,3.87,0,0,0,.43-.27,2.92,2.92,0,0,0,.4-.39c.13-.14.28-.32.45-.53l.2-.24a.91.91,0,0,1,.2-.19A1.19,1.19,0,0,1,142,36.84Z"/></svg>