<svg xmlns="http://www.w3.org/2000/svg" viewBox="0 0 700 550"><defs><style>.a{fill:#f7f7f7;}.b{fill:#784e4e;}.c{fill:#ab2b2b;}.d,.e{fill:none;stroke:#784e4e;stroke-miterlimit:10;}.d{stroke-width:30px;}.e{stroke-width:10px;}.f{fill:#ff4141;}.g{opacity:0.85;}.h{fill:#f5f5f5;}</style></defs><title>full.logo</title><rect class="a" x="24.05" y="84.18" width="650.89" height="379.77"/><path class="b" d="M665,94.18V453.94H34.05V94.18H665m20-20H14.05V473.94H685V74.18Z"/><polygon class="c" points="34.05 93.74 349.5 273.62 664.95 93.74 34.05 93.74"/><polyline class="d" points="664.95 94.18 664.18 94.18 349.5 273.62 34.81 94.18 34.05 94.18"/><polyline class="e" points="668 457.01 349.5 270.57 31 457.01"/><path class="f" d="M447.07,187.3h0a57.23,57.23,0,0,0-81.94,0l-15,15.32-15-15.32a57.23,57.23,0,0,0-81.94,0h0c-22.54,23-22.54,60.7,0,83.72l60.41,61.73a11.66,11.66,0,0,0,2.38,1.87l24.69,25.24a13.75,13.75,0,0,0,19.67,0L403,316.32a13.61,13.61,0,0,0,1.25-1.5L447.07,271C469.6,248,469.6,210.32,447.07,187.3Z"/><g class="g"><path class="h" d="M294.16,170a57.11,57.11,0,0,1,41,17.27l15,15.32,15-15.32a57.23,57.23,0,0,1,81.94,0h0c22.53,23,22.53,60.7,0,83.72l-42.87,43.8a13.61,13.61,0,0,1-1.25,1.5l-42.61,43.54a13.75,13.75,0,0,1-19.67,0L316,334.62a11.66,11.66,0,0,1-2.38-1.87L253.19,271c-22.54-23-22.54-60.7,0-83.72h0a57.08,57.08,0,0,1,41-17.27m0-15a71.79,71.79,0,0,0-51.69,21.77c-28.26,28.87-28.26,75.84,0,104.71l60.42,61.73a26.58,26.58,0,0,0,3.45,3L330,370.35a28.75,28.75,0,0,0,41.11,0l42.61-43.54a28.16,28.16,0,0,0,1.87-2.13l42.25-43.17c28.25-28.87,28.25-75.84,0-104.71a72.25,72.25,0,0,0-103.38,0l-4.28,4.38-4.28-4.38A71.83,71.83,0,0,0,294.16,155Z"/></g></svg>