<svg xmlns="http://www.w3.org/2000/svg" viewBox="0 0 256 256">
	<defs>
		<style>
			.b{fill:#f5f5f5}
		</style>
	</defs>
	<title>
		Heartbeat
	</title>
	<path
		class="b"
		d="M65.57-53.92h0a38.72,38.72,0,0,0-55.42,0L0-43.55-10.15-53.92a38.72,38.72,0,0,0-55.42,0h0a40.79,40.79,0,0,0,0,56.63l40.86,41.75a8.32,8.32,0,0,0,1.61,1.27L-6.39,62.8a9.3,9.3,0,0,0,13.3,0L35.73,33.35a10,10,0,0,0,.84-1l29-29.63A40.79,40.79,0,0,0,65.57-53.92Z"
		transform="translate(128, 128)">
		
		<animateTransform attributeName="transform"
				attributeType="XML"
				additive="sum"
				type="scale"
				begin="0s;fade1.end+1.4s"
				id="heartbeat"
				from="1 1"
				to="1.05 1.05"
				fill="remove"
				dur="0.2s"/>
	</path>
	<path
		class="b"
		d="M-35.35-61.25A36.1,36.1,0,0,1-9.47-50.35L0-40.67l9.47-9.68a36.1,36.1,0,0,1,25.88-10.9,36.1,36.1,0,0,1,25.88,10.9h0a38.09,38.09,0,0,1,0,52.88L34.15,30.2a9.83,9.83,0,0,1-.79.94L6.45,58.64A8.68,8.68,0,0,1,.24,61.25,8.68,8.68,0,0,1-6,58.64L-21.57,42.7a7.56,7.56,0,0,1-1.5-1.18l-38.16-39a38.09,38.09,0,0,1,0-52.88h0a36.1,36.1,0,0,1,25.88-10.9m0-4a39.92,39.92,0,0,0-28.73,12.1,42,42,0,0,0,0,58.48l38.15,39a11.53,11.53,0,0,0,1.82,1.5L-8.83,61.44A12.6,12.6,0,0,0,.24,65.25a12.6,12.6,0,0,0,9.07-3.81l26.91-27.5a14.18,14.18,0,0,0,1-1.13L64.08,5.33a42,42,0,0,0,0-58.48,39.92,39.92,0,0,0-28.73-12.1A39.92,39.92,0,0,0,6.62-53.15L0-46.39l-6.62-6.76a39.92,39.92,0,0,0-28.73-12.1Z"
		transform="translate(128, 128)">

		<animate attributeType="XML"
				attributeName="opacity"
				begin="heartbeat.end"
				id="fade1"
				from="1"
				to="0"
				fill="freeze"
				dur="0.8s"/>
		<animateTransform attributeName="transform"
				attributeType="XML"
				additive="sum"
				type="scale"
				begin="heartbeat.end"
				id="grow1"
				from=".9 .9"
				to="1.7 1.7"
				dur="0.8s"/>
	</path>
</svg>
