<svg xmlns="http://www.w3.org/2000/svg" viewBox="0 0 16 16"><defs><style>.a{fill:#f7f7f7;}.b{fill:#784e4e;}.c,.e{fill:none;stroke:#784e4e;stroke-miterlimit:10;}.d{fill:#ab2b2b;}.e{stroke-width:2px;}.f{fill:#ff4141;}.g{fill:#f5f5f5;}</style></defs><title>icon.16</title><rect class="a" x="-4.38" y="5.19" width="24.77" height="15.02"/><path class="b" d="M19.89,5.69v14H-3.89v-14H19.89m1-1H-4.89v16H20.89v-16Z"/><polyline class="c" points="20 19.82 8 12.56 -4 19.82"/><polygon class="d" points="-3.88 5.67 8 13.82 19.89 5.67 -3.88 5.67"/><polyline class="e" points="19.89 5.68 19.86 5.68 8 13.82 -3.86 5.68 -3.88 5.68"/><path class="f" d="M8.07,10a1.11,1.11,0,0,1-.77-.31l-1-1a.69.69,0,0,1-.13-.11L3.5,6.05a2.84,2.84,0,0,1,0-4.13,3.11,3.11,0,0,1,4.25,0l.31.29.3-.29a3.11,3.11,0,0,1,4.25,0,2.84,2.84,0,0,1,0,4.13L8.85,9.66A1.11,1.11,0,0,1,8.07,10Z"/><path class="g" d="M10.49,1.58a2.57,2.57,0,0,1,1.78.7h0a2.36,2.36,0,0,1,0,3.41L10.4,7.47l-.05.06L8.5,9.3a.63.63,0,0,1-.43.17.61.61,0,0,1-.42-.17l-1.08-1-.1-.08L3.85,5.69a2.35,2.35,0,0,1,0-3.41,2.61,2.61,0,0,1,3.56,0l.65.63.65-.63a2.55,2.55,0,0,1,1.78-.7m0-1a3.52,3.52,0,0,0-2.43.94,3.61,3.61,0,0,0-4.9,0,3.33,3.33,0,0,0,0,4.85L5.78,8.92,6,9.06l1,1a1.58,1.58,0,0,0,1.11.45A1.61,1.61,0,0,0,9.19,10L11,8.25a.47.47,0,0,0,.1-.1L13,6.41a3.35,3.35,0,0,0,0-4.85,3.56,3.56,0,0,0-2.47-1Z"/></svg>