<svg xmlns="http://www.w3.org/2000/svg" viewBox="0 0 512 512"><defs><style>.a{fill:#fff;}</style></defs><title>icon.bw</title><rect class="a" x="45" y="121" width="419" height="261"/><rect x="32" y="107.46" width="449" height="30"/><path d="M321.2,194.44h0a39.28,39.28,0,0,0-56.23,0L254.68,205l-10.3-10.52a39.27,39.27,0,0,0-56.22,0h0a41.36,41.36,0,0,0,0,57.45l41.45,42.36a8.64,8.64,0,0,0,1.63,1.29l16.95,17.31a9.42,9.42,0,0,0,13.49,0L290.92,283a9.11,9.11,0,0,0,.86-1l29.42-30.06A41.38,41.38,0,0,0,321.2,194.44Z"/><path d="M354.16,201.45a67.13,67.13,0,0,1,2.27,35L451,170.52V371H62V171l90.68,64.17a67.21,67.21,0,0,1,2.87-34.72L32,113.05V401H481V113.05Z"/></svg>