<svg xmlns="http://www.w3.org/2000/svg" viewBox="0 0 64 64"><defs><style>.a{fill:#f7f7f7;}.b{fill:#784e4e;}.c,.e{fill:none;stroke:#784e4e;stroke-miterlimit:10;}.c{stroke-width:2px;}.d{fill:#ab2b2b;}.e{stroke-width:4px;}.f{fill:#ff4141;}.g{fill:#f5f5f5;}</style></defs><title>icon.64</title><rect class="a" x="4.25" y="28.45" width="54.49" height="31.93"/><path class="b" d="M57.75,29.45V59.38H5.25V29.45h52.5m2-2H3.25V61.38h56.5V27.45Z"/><polyline class="c" points="58 59.63 31.5 44.12 5 59.63"/><polygon class="d" points="5.25 29.41 31.5 46.82 57.75 29.41 5.25 29.41"/><polyline class="e" points="57.75 29.45 57.68 29.45 31.5 46.82 5.32 29.45 5.25 29.45"/><path class="f" d="M31.65,31.63a2.84,2.84,0,0,1-2-.87l-3.26-3.33a2.6,2.6,0,0,1-.4-.33l-8.17-8.35A9.14,9.14,0,0,1,17.77,6,8.73,8.73,0,0,1,30.28,6L31.6,7.36,32.91,6A8.74,8.74,0,0,1,45.43,6a9.16,9.16,0,0,1,0,12.73l-5.76,5.88a2.32,2.32,0,0,1-.21.25l-5.77,5.88A2.82,2.82,0,0,1,31.65,31.63Z"/><path class="g" d="M24,4.38a7.75,7.75,0,0,1,5.55,2.34l2,2.07,2-2.07a7.73,7.73,0,0,1,11.08,0h0a8.16,8.16,0,0,1,0,11.33L38.91,24a1.57,1.57,0,0,1-.17.21L33,30.07a1.86,1.86,0,0,1-2.66,0L27,26.65a1.31,1.31,0,0,1-.32-.25l-8.18-8.35a8.16,8.16,0,0,1,0-11.33A7.74,7.74,0,0,1,24,4.38m0-2a9.71,9.71,0,0,0-7,2.94,10.16,10.16,0,0,0,0,14.13l8.18,8.35a3.57,3.57,0,0,0,.46.4l3.2,3.26a3.84,3.84,0,0,0,5.52,0l5.76-5.89a3.58,3.58,0,0,0,.26-.28l5.71-5.84a10.16,10.16,0,0,0,0-14.13,9.73,9.73,0,0,0-13.94,0l-.6.61L31,5.32a9.72,9.72,0,0,0-7-2.94Z"/></svg>