<svg xmlns="http://www.w3.org/2000/svg" viewBox="0 0 256 256"><defs><style>.a{fill:#f7f7f7;}.b{fill:#784e4e;}.c{fill:none;stroke:#784e4e;stroke-miterlimit:10;stroke-width:10px;}.d{fill:#ab2b2b;}.e{fill:#ff4141;}.f{fill:#f5f5f5;}</style></defs><title>icon.256</title><rect class="a" x="10.1" y="98.95" width="236.8" height="139.33"/><path class="b" d="M241.9,104V233.29H15.1V104H241.9m10-10H5.1V243.29H251.9V94Z"/><polyline class="c" points="243 234.39 128.5 167.36 14 234.39"/><polygon class="d" points="15.1 103.79 128.5 179 241.9 103.79 15.1 103.79"/><path class="e" d="M128.92,131.93a14.63,14.63,0,0,1-10.55-4.45L105.86,114.7a14.59,14.59,0,0,1-1.79-1.53L72.15,80.55a39.34,39.34,0,0,1,0-54.73,37.73,37.73,0,0,1,54,0l2.57,2.62,2.56-2.62a37.73,37.73,0,0,1,54,0,39.34,39.34,0,0,1,0,54.73L163,103.37c-.32.4-.64.76-1,1.1l-22.52,23A14.64,14.64,0,0,1,128.92,131.93Z"/><path class="f" d="M99.15,21.94a30.19,30.19,0,0,1,21.65,9.12l7.93,8.1,7.92-8.1a30.25,30.25,0,0,1,43.29,0,31.85,31.85,0,0,1,0,44.24L157.29,98.44a6.14,6.14,0,0,1-.66.79l-22.51,23a7.26,7.26,0,0,1-10.39,0l-13-13.33a6.89,6.89,0,0,1-1.25-1L77.51,75.3a31.85,31.85,0,0,1,0-44.24h0a30.19,30.19,0,0,1,21.64-9.12m0-15A44.93,44.93,0,0,0,66.79,20.57a46.88,46.88,0,0,0,0,65.22l31.92,32.62a20.43,20.43,0,0,0,2.2,2L113,132.73a22.25,22.25,0,0,0,31.83,0l22.51-23c.42-.44.83-.89,1.23-1.37l22.08-22.57a46.88,46.88,0,0,0,0-65.22,45.24,45.24,0,0,0-61.93-2.63,44.91,44.91,0,0,0-29.58-11Z"/><polyline class="c" points="241.9 103.95 241.63 103.95 128.5 179 15.37 103.95 15.1 103.95"/></svg>