<svg xmlns="http://www.w3.org/2000/svg" viewBox="0 0 32 32"><defs><style>.a{fill:#f7f7f7;}.b{fill:#784e4e;}.c,.g{fill:none;stroke:#784e4e;stroke-miterlimit:10;}.d{fill:#ab2b2b;}.e{fill:#ff4141;}.f{fill:#f5f5f5;}.g{stroke-width:2px;}</style></defs><title>icon.32</title><rect class="a" x="1.63" y="10.01" width="28.73" height="17.35"/><path class="b" d="M29.87,10.51V26.86H2.13V10.51H29.87m1-1H1.13V27.86H30.87V9.51Z"/><polyline class="c" points="30 27 16 18.53 2 27"/><polygon class="d" points="2.13 10.49 16 20 29.87 10.49 2.13 10.49"/><path class="e" d="M16.08,16.37a1.5,1.5,0,0,1-1-.41l-1.68-1.61a1.2,1.2,0,0,1-.21-.17L9,10.15A4.26,4.26,0,0,1,9,4a4.68,4.68,0,0,1,6.41,0l.7.67.7-.67a4.68,4.68,0,0,1,6.41,0,4.28,4.28,0,0,1,0,6.2l-3,2.86-.09.1-3,2.85A1.53,1.53,0,0,1,16.08,16.37Z"/><path class="f" d="M12.15,3.18A4.14,4.14,0,0,1,15,4.31l1,1,1-1a4.18,4.18,0,0,1,5.72,0h0a3.78,3.78,0,0,1,0,5.48l-3,2.86-.09.1-3,2.85a1,1,0,0,1-.69.27,1,1,0,0,1-.68-.27L13.67,14l-.16-.13-4.22-4a3.78,3.78,0,0,1,0-5.48,4.16,4.16,0,0,1,2.86-1.13m7.81-1a5.1,5.1,0,0,0-3.55,1.41l-.35.34-.36-.34a5.17,5.17,0,0,0-7.1,0,4.76,4.76,0,0,0,0,6.92l4.22,4a1.55,1.55,0,0,0,.24.19l1.65,1.58a2,2,0,0,0,1.37.55,2,2,0,0,0,1.38-.55l3-2.85a.86.86,0,0,0,.13-.14l3-2.82a4.76,4.76,0,0,0,0-6.92A5.08,5.08,0,0,0,20,2.18Z"/><polyline class="g" points="29.87 10.51 29.83 10.51 16 20 2.17 10.51 2.13 10.51"/></svg>