<svg xmlns="http://www.w3.org/2000/svg" viewBox="0 0 128 128"><defs><style>.a{fill:#f7f7f7;}.b{fill:#784e4e;}.c,.e{fill:none;stroke:#784e4e;stroke-miterlimit:10;}.c{stroke-width:4px;}.d{fill:#ab2b2b;}.e{stroke-width:6px;}.f{fill:#ff4141;}.g{fill:#f5f5f5;}</style></defs><title>icon.128</title><rect class="a" x="12.47" y="59.42" width="102.05" height="59.91"/><path class="b" d="M112.53,61.42v55.91H14.47V61.42h98.06m4-4H10.47v63.91H116.53V57.42Z"/><polyline class="c" points="113 117.81 63.5 88.83 14 117.81"/><polygon class="d" points="14.47 61.35 63.5 93.86 112.53 61.35 14.47 61.35"/><polyline class="e" points="112.53 61.42 112.41 61.42 63.5 93.86 14.59 61.42 14.47 61.42"/><path class="f" d="M63.74,72.53a6.6,6.6,0,0,1-4.75-2l-7.28-7.43a6,6,0,0,1-.91-.76L32.54,43.67a20.71,20.71,0,0,1,0-28.8,19.8,19.8,0,0,1,28.34,0l2.75,2.81,2.75-2.81a19.8,19.8,0,0,1,28.34,0,20.71,20.71,0,0,1,0,28.8L81.87,56.8a6.33,6.33,0,0,1-.49.56L68.5,70.52A6.61,6.61,0,0,1,63.74,72.53Z"/><path class="g" d="M46.71,11.4a17.25,17.25,0,0,1,12.38,5.22l4.54,4.63,4.53-4.63a17.3,17.3,0,0,1,24.77,0h0a18.22,18.22,0,0,1,0,25.3L80,55.16a3.23,3.23,0,0,1-.38.45L66.72,68.77a4.14,4.14,0,0,1-5.95,0l-7.46-7.62a3.54,3.54,0,0,1-.72-.57L34.33,41.92a18.22,18.22,0,0,1,0-25.3h0A17.25,17.25,0,0,1,46.71,11.4m0-5a22.16,22.16,0,0,0-15.95,6.72,23.21,23.21,0,0,0,0,32.3L49,64.08a8.53,8.53,0,0,0,1.06.92l7.12,7.27a9.14,9.14,0,0,0,13.09,0L83.17,59.11a7.59,7.59,0,0,0,.58-.66l12.75-13a23.21,23.21,0,0,0,0-32.3,22.3,22.3,0,0,0-31.91,0l-1,1-1-1a22.18,22.18,0,0,0-16-6.72Z"/></svg>