<svg xmlns="http://www.w3.org/2000/svg" viewBox="0 0 512 512"><defs><style>.a{fill:#f7f7f7;}.b{fill:#784e4e;}.c,.e{fill:none;stroke:#784e4e;stroke-miterlimit:10;}.c{stroke-width:10px;}.d{fill:#ab2b2b;}.e{stroke-width:15px;}.f{fill:#ff4141;}.g{fill:#f5f5f5;}</style></defs><title>icon.512</title><rect class="a" x="24.15" y="196.65" width="454.7" height="263.59"/><path class="b" d="M473.85,201.65V455.24H29.15V201.65h444.7m10-10H19.15V465.24h464.7V191.65Z"/><polyline class="c" points="476 457.41 251.5 325.99 27 457.41"/><polygon class="d" points="29.15 201.35 251.5 345.26 473.85 201.35 29.15 201.35"/><polyline class="e" points="473.85 201.7 473.31 201.7 251.5 345.26 29.69 201.7 29.15 201.7"/><path class="f" d="M252.32,271.38a23.29,23.29,0,0,1-16.77-7.06l-28.07-28.68a21.06,21.06,0,0,1-3.35-2.78L134,161.22c-29-29.68-29-78,0-107.66a73.92,73.92,0,0,1,105.82,0l12,12.31,12.05-12.31a73.92,73.92,0,0,1,105.82,0c29.05,29.68,29.05,78,0,107.66l-49.42,50.49a24,24,0,0,1-1.79,2.08l-49.45,50.53A23.32,23.32,0,0,1,252.32,271.38Z"/><path class="g" d="M186.92,38.76a66.32,66.32,0,0,1,47.55,20l17.41,17.79L269.29,58.8a66.43,66.43,0,0,1,95.1,0h0c26.15,26.72,26.15,70.45,0,97.17l-49.76,50.84a15.73,15.73,0,0,1-1.45,1.74l-49.45,50.52a15.94,15.94,0,0,1-22.82,0l-28.66-29.28a14.18,14.18,0,0,1-2.76-2.17L139.37,156c-26.15-26.72-26.15-70.45,0-97.17h0a66.32,66.32,0,0,1,47.55-20m0-15a80.94,80.94,0,0,0-58.27,24.55c-31.88,32.58-31.88,85.58,0,118.15l70.12,71.65a29,29,0,0,0,3.85,3.29l27.57,28.16a30.93,30.93,0,0,0,44.26,0L323.9,219a31.34,31.34,0,0,0,2.09-2.39l49.12-50.19c31.88-32.57,31.88-85.57,0-118.15a81.43,81.43,0,0,0-116.54,0l-6.69,6.84-6.69-6.84a80.94,80.94,0,0,0-58.27-24.55Z"/></svg>